<?xml version="1.0" standalone="no"?>
<!DOCTYPE svg PUBLIC "-//W3C//DTD SVG 20010904//EN"
 "http://www.w3.org/TR/2001/REC-SVG-20010904/DTD/svg10.dtd">
<svg version="1.0" xmlns="http://www.w3.org/2000/svg"
 width="256.000000pt" height="256.000000pt" viewBox="0 0 256.000000 256.000000"
 preserveAspectRatio="xMidYMid meet">
<metadata>
Created by potrace 1.11, written by Peter Selinger 2001-2013
</metadata>
<g transform="translate(0.000000,256.000000) scale(0.100000,-0.100000)"
fill="#000000" stroke="none">
<path d="M1188 2335 c-2 -1 -25 -5 -53 -8 -60 -6 -160 -31 -232 -57 -355 -131
-647 -436 -767 -802 -43 -132 -51 -184 -50 -338 1 -177 36 -299 123 -432 152
-232 415 -385 776 -453 141 -26 433 -26 595 1 52 8 147 32 220 56 486 155 745
544 665 998 -21 119 -24 130 -60 225 -95 248 -283 479 -504 623 -140 90 -308
155 -460 178 -39 6 -248 13 -253 9z"/>
</g>
</svg>
